<?xml version="1.0" encoding="UTF-8"?>
<!DOCTYPE svg PUBLIC "-//W3C//DTD SVG 1.1//EN" "http://www.w3.org/Graphics/SVG/1.1/DTD/svg11.dtd">
<!-- Creator: CorelDRAW SE -->
<svg xmlns="http://www.w3.org/2000/svg" xml:space="preserve" width="41mm" height="11mm" version="1.1" style="shape-rendering:geometricPrecision; text-rendering:geometricPrecision; image-rendering:optimizeQuality; fill-rule:evenodd; clip-rule:evenodd"
viewBox="0 0 4100 1100"
 xmlns:xlink="http://www.w3.org/1999/xlink">
 <defs>
  <style type="text/css">
   <![CDATA[
    .fil0 {fill:#0477BA}
    .fil1 {fill:url(#id0);fill-rule:nonzero}
   ]]>
  </style>
  <linearGradient id="id0" gradientUnits="userSpaceOnUse" x1="156.14" y1="557.03" x2="4039.83" y2="557.03">
   <stop offset="0" style="stop-opacity:1; stop-color:white"/>
   <stop offset="0.2" style="stop-opacity:1; stop-color:#82BBDD"/>
   <stop offset="0.211765" style="stop-opacity:1; stop-color:#EFF6FB"/>
   <stop offset="0.309804" style="stop-opacity:1; stop-color:#1D84C1"/>
   <stop offset="1" style="stop-opacity:1; stop-color:#0477BA"/>
  </linearGradient>
 </defs>
 <g id="Warstwa_x0020_1">
  <metadata id="CorelCorpID_0Corel-Layer"/>
  <path class="fil0" d="M558.36 1067.52c-281.91,0 -510.46,-228.55 -510.46,-510.47 0,-281.91 228.55,-510.46 510.46,-510.46 281.92,0 510.47,228.55 510.47,510.46 0,281.92 -228.55,510.47 -510.47,510.47z"/>
  <path class="fil1" d="M184.08 965.98l-27.94 -43.18c23.14,-17.5 44.45,-33.87 63.78,-48.97 19.33,-15.1 36.41,-31.18 51.23,-48.26 14.81,-17.07 27.09,-36.97 36.97,-59.83 9.88,-22.86 16.79,-50.94 20.74,-84.24l62.65 -507.16 81.28 0 -62.65 507.16c-4.51,36.97 -12.7,69 -24.69,96.09 -12,27.1 -27.66,51.09 -46.99,71.97 -19.34,20.88 -41.91,40.5 -67.74,58.84 -25.82,18.35 -54.75,37.54 -86.64,57.58zm508 -165.95c-23.99,0 -51.65,-2.96 -83.12,-8.75 -31.47,-5.78 -60.82,-15.52 -87.91,-29.35l28.79 -55.03c23.7,11.29 48.26,19.47 73.52,24.55 25.26,5.08 47.55,7.62 67.02,7.62 39.8,0 71.97,-10.16 96.52,-30.34 24.56,-20.18 38.67,-44.73 42.34,-73.8 2.54,-20.6 -0.43,-38.38 -8.89,-53.34 -8.47,-14.96 -20.46,-28.22 -35.99,-39.79 -15.52,-11.58 -32.73,-22.58 -51.64,-32.88 -18.91,-10.3 -37.82,-21.03 -56.73,-32.32 -18.91,-11.29 -35.84,-24.13 -50.94,-38.52 -15.1,-14.39 -26.67,-31.47 -34.57,-51.08 -7.91,-19.62 -10.16,-43.04 -6.78,-70.42 3.39,-28.22 13.69,-53.9 30.91,-77.05 17.21,-23.14 39.51,-41.62 66.88,-55.45 27.38,-13.83 58,-20.75 91.87,-20.75 24.27,0 48.54,1.98 72.67,5.93 24.13,3.95 50.1,10.44 78.04,19.47l-29.64 55.04c-23.14,-7.34 -45.01,-12.28 -65.62,-14.82 -20.6,-2.54 -38.8,-3.81 -54.61,-3.81 -31.6,0 -56.86,9.03 -75.91,27.24 -19.05,18.2 -30.2,39.65 -33.31,64.2 -2.54,22.01 2.12,40.92 13.97,56.73 11.86,15.8 27.94,30.06 48.26,42.76 20.32,12.7 41.91,25.4 64.77,38.24 22.86,12.84 44.17,27.23 63.93,43.18 19.75,15.94 35.28,35.13 46.42,57.43 11.15,22.29 14.68,49.53 10.73,81.7 -3.39,27.94 -14.39,54.33 -33.02,79.17 -18.63,24.83 -43.89,45.01 -75.78,60.67 -31.89,15.67 -69.28,23.57 -112.18,23.57zm480.91 -1.69c-37.82,0 -70.98,-8.75 -99.62,-26.25 -28.65,-17.5 -50.1,-43.18 -64.21,-77.05 -14.11,-33.86 -18.2,-75.35 -12.28,-124.46 4.8,-38.66 14.82,-72.25 30.06,-100.75 15.24,-28.51 33.87,-52.07 55.74,-70.7 21.87,-18.62 45.44,-32.6 70.84,-41.77 25.4,-9.17 50.52,-13.69 75.35,-13.69 43.18,0 78.74,10.02 106.68,30.2 27.94,20.18 47.84,47.42 59.69,81.71 11.86,34.29 15.1,72.67 9.74,115 -4.52,36.69 -13.83,69.15 -28.08,97.51 -14.25,28.36 -32.18,52.21 -53.63,71.54 -21.44,19.34 -45.01,34.01 -70.69,43.89 -25.68,9.88 -52.21,14.82 -79.59,14.82zm7.62 -60.96c27.38,0 50.94,-7.62 70.56,-22.86 19.61,-15.24 35.27,-35.56 46.99,-60.82 11.71,-25.26 19.33,-52.92 23,-83.12 4.8,-37.82 3.24,-69 -4.8,-93.55 -8.04,-24.56 -20.6,-42.76 -37.54,-54.61 -16.93,-11.86 -36.12,-17.78 -57.57,-17.78 -21.45,0 -41.91,5.92 -61.52,17.78 -19.62,11.85 -36.55,30.05 -50.66,54.61 -14.11,24.55 -23.57,55.73 -28.37,93.55 -5.92,49.11 -0.28,89.19 16.8,120.23 17.07,31.04 44.73,46.57 83.11,46.57zm307.35 52.49l78.74 -641.78 76.2 5.93 -77.9 635.85 -77.04 0zm324.27 8.47c-22.3,0 -42.2,-4.1 -59.69,-12.28 -17.5,-8.18 -30.62,-22.15 -39.37,-41.91 -8.75,-19.76 -11.01,-47.13 -6.78,-82.13l38.1 -309.88 79.59 0 -38.95 318.35c-2.54,19.47 -0.42,35.42 6.35,47.98 6.78,12.56 19.05,18.91 36.83,18.91 6.78,0 12.85,-0.71 18.07,-2.12 5.22,-1.41 11.57,-2.96 19.19,-4.66 16.93,-3.95 32.31,-4.23 46,-0.84 13.69,3.38 25.68,11.29 36.12,23.7 -32.17,17.78 -58.98,29.64 -80.43,35.7 -21.45,6.07 -39.79,9.18 -55.03,9.18zm187.11 -8.47c-11.85,-15.24 -18.91,-30.34 -21.31,-45.3 -2.4,-14.95 -2.68,-30.9 -0.7,-47.83l42.33 -344.6 78.74 0 -39.79 326.82c-1.98,15.52 -2.96,32.17 -3.11,49.95 -0.14,17.78 1.13,36.69 3.96,56.73l-60.12 4.23zm356.45 9.31c-46,0 -79.44,-15.1 -100.47,-45.29 -21.02,-30.2 -28.22,-72.11 -21.45,-125.73l27.1 -217.6 -77.9 0 4.24 -38.1 80.43 -20.32 13.55 -111.76 77.89 -23.71 -51.65 420.8c-3.66,29.07 -0.42,53.34 9.74,72.95 10.16,19.62 25.54,29.5 46.14,29.5 11.01,0 21.74,-0.99 32.18,-2.97 10.44,-1.97 23.42,-5.22 38.94,-9.73l11.86 53.34c-22.3,7.05 -39.51,11.85 -51.79,14.53 -12.28,2.68 -25.26,4.09 -38.81,4.09zm81.28 -388.62c-13.26,0 -24.27,-2.68 -33.02,-7.9 -8.74,-5.22 -15.52,-12.28 -20.46,-21.17 -4.94,-8.89 -8.6,-18.62 -10.86,-29.35l119.38 0 -6.78 58.42 -48.26 0zm119.38 379.31l53.34 -437.73 81.28 0 -53.34 437.73 -81.28 0zm103.3 -513.93c-14.4,0 -25.83,-4.94 -34.43,-14.67 -8.61,-9.74 -12.14,-21.74 -10.45,-36.13 2.26,-14.96 8.89,-27.37 19.76,-37.11 10.87,-9.74 23.42,-14.54 37.82,-14.54 14.96,0 26.67,4.8 34.99,14.54 8.33,9.74 11.29,22.15 9.03,37.11 -1.69,14.39 -7.76,26.39 -18.34,36.13 -10.58,9.73 -23.42,14.67 -38.38,14.67zm281.94 522.4c-37.82,0 -70.98,-8.75 -99.62,-26.25 -28.65,-17.5 -50.1,-43.18 -64.21,-77.05 -14.11,-33.86 -18.2,-75.35 -12.28,-124.46 4.8,-38.66 14.82,-72.25 30.06,-100.75 15.24,-28.51 33.87,-52.07 55.74,-70.7 21.87,-18.62 45.44,-32.6 70.84,-41.77 25.4,-9.17 50.52,-13.69 75.35,-13.69 43.18,0 78.74,10.02 106.68,30.2 27.94,20.18 47.84,47.42 59.69,81.71 11.86,34.29 15.1,72.67 9.74,115 -4.52,36.69 -13.83,69.15 -28.08,97.51 -14.25,28.36 -32.18,52.21 -53.63,71.54 -21.44,19.34 -45.01,34.01 -70.69,43.89 -25.68,9.88 -52.21,14.82 -79.59,14.82zm7.62 -60.96c27.38,0 50.94,-7.62 70.56,-22.86 19.61,-15.24 35.27,-35.56 46.99,-60.82 11.71,-25.26 19.33,-52.92 23,-83.12 4.8,-37.82 3.24,-69 -4.8,-93.55 -8.04,-24.56 -20.6,-42.76 -37.54,-54.61 -16.93,-11.86 -36.12,-17.78 -57.57,-17.78 -21.45,0 -41.91,5.92 -61.52,17.78 -19.62,11.85 -36.55,30.05 -50.66,54.61 -14.11,24.55 -23.57,55.73 -28.37,93.55 -5.92,49.11 -0.28,89.19 16.8,120.23 17.07,31.04 44.73,46.57 83.11,46.57zm585.05 52.49l38.95 -318.35c2.26,-19.47 -0.28,-35.56 -7.62,-48.12 -7.34,-12.56 -19.75,-18.76 -37.25,-18.76 -6.78,0 -12.7,0.7 -17.92,2.11 -5.22,1.41 -11.72,2.97 -19.34,4.66 -16.93,3.67 -32.17,3.81 -45.72,0.42 -13.54,-3.38 -25.4,-11.15 -35.56,-23.28 32.18,-17.78 58.71,-29.78 79.59,-35.84 20.89,-6.07 38.95,-9.04 54.19,-9.04 22.58,0 43.04,4.1 61.24,12.28 18.2,8.19 31.89,22.16 41.06,41.91 9.18,19.76 11.43,47.13 6.92,82.13l-37.25 309.88 -81.29 0zm-277.7 0l39.79 -326.81c1.69,-15.81 2.68,-32.6 2.96,-50.38 0.29,-17.78 -0.7,-36.55 -2.96,-56.31l61.81 -4.23c11.85,15.24 18.91,30.34 21.16,45.3 2.26,14.96 2.26,30.9 0,47.84l-41.48 344.59 -81.28 0zm616.38 8.47c-21.45,0 -44.03,-1.98 -67.88,-5.79 -23.85,-3.81 -51.5,-13.69 -82.83,-29.77l27.94 -55.88c20.04,10.44 40.64,18.06 61.81,23 21.16,4.94 40.64,7.48 58.42,7.48 25.4,0 45.15,-5.93 59.12,-17.78 13.97,-11.86 21.88,-27.1 23.85,-45.72 1.98,-15.53 -1.27,-28.37 -9.88,-38.53 -8.6,-10.16 -20.18,-19.19 -34.71,-27.09 -14.53,-7.9 -30.06,-15.95 -46.57,-23.99 -16.51,-8.04 -31.89,-17.36 -46.14,-27.94 -14.25,-10.58 -25.26,-23.71 -33.02,-39.51 -7.76,-15.81 -10.3,-35.42 -7.48,-58.84 1.98,-18.07 9.17,-35.85 21.59,-53.2 12.42,-17.36 29.49,-31.75 51.08,-43.18 21.59,-11.43 46.99,-17.08 76.34,-17.08 16.09,0 33.59,1.55 52.5,4.66 18.91,3.1 39.79,8.89 62.65,17.35l-26.25 55.04c-16.93,-5.93 -32.87,-10.3 -47.83,-12.98 -14.96,-2.68 -28.37,-3.95 -40.22,-3.95 -19.47,0 -35.98,4.51 -49.67,13.54 -13.69,9.03 -21.73,22.3 -23.99,39.8 -1.97,14.95 1.41,27.51 10.02,37.67 8.61,10.16 20.18,19.19 34.71,27.1 14.54,7.9 30.06,15.94 46.57,24.27 16.51,8.32 31.89,18.06 46.14,29.07 14.26,11 25.26,24.55 33.16,40.78 7.91,16.22 10.31,36.69 7.2,61.24 -2.82,21.45 -11.99,41.2 -27.52,59.41 -15.52,18.2 -34.71,32.88 -57.57,44.02 -22.86,11.15 -46.71,16.8 -71.54,16.8z"/>
 </g>
</svg>
